<?xml version="1.0" encoding="UTF-8" standalone="no"?>
<!DOCTYPE svg PUBLIC "-//W3C//DTD SVG 1.0//EN" "http://www.w3.org/TR/2001/PR-SVG-20010719/DTD/svg10.dtd">
<svg width="65cm" height="22cm" viewBox="237 96 1283 425" xmlns="http://www.w3.org/2000/svg" xmlns:xlink="http://www.w3.org/1999/xlink">
  <text font-size="12.7998" style="fill: #000000;text-anchor:start;font-family:sans-serif;font-style:normal;font-weight:normal" x="320" y="376">
    <tspan x="320" y="376"></tspan>
  </text>
  <text font-size="12.7998" style="fill: #000000;text-anchor:start;font-family:sans-serif;font-style:normal;font-weight:normal" x="330" y="387">
    <tspan x="330" y="387"></tspan>
  </text>
  <g>
    <rect style="fill: #d8e5e5" x="237.05" y="174" width="81.9" height="144"/>
    <rect style="fill: none; fill-opacity:0; stroke-width: 2.35099e-037; stroke: #000000" x="237.05" y="174" width="81.9" height="144"/>
    <text font-size="12.8" style="fill: #000000;text-anchor:end;font-family:sans-serif;font-style:normal;font-weight:700" x="308.95" y="202.8">
      <tspan x="308.95" y="202.8">sample 1</tspan>
      <tspan x="308.95" y="218.8">sample 2</tspan>
      <tspan x="308.95" y="234.8">sample 3</tspan>
      <tspan x="308.95" y="250.8">sample 4</tspan>
      <tspan x="308.95" y="266.8">......</tspan>
      <tspan x="308.95" y="282.8">......</tspan>
      <tspan x="308.95" y="298.8">sample m</tspan>
    </text>
  </g>
  <text font-size="12.7998" style="fill: #000000;text-anchor:start;font-family:sans-serif;font-style:normal;font-weight:normal" x="278" y="246">
    <tspan x="278" y="246"></tspan>
  </text>
  <text font-size="12.7998" style="fill: #000000;text-anchor:start;font-family:sans-serif;font-style:normal;font-weight:normal" x="471" y="359">
    <tspan x="471" y="359"></tspan>
  </text>
  <g>
    <rect style="fill: #00ff00" x="318.75" y="133" width="305.8" height="36"/>
    <rect style="fill: none; fill-opacity:0; stroke-width: 2.35099e-037; stroke: #000000" x="318.75" y="133" width="305.8" height="36"/>
    <text font-size="12.8" style="fill: #000000;text-anchor:middle;font-family:sans-serif;font-style:normal;font-weight:700" x="471.65" y="155.8">
      <tspan x="471.65" y="155.8">gene 1   gene 2   gene 3  gene 4  ......  gene n</tspan>
    </text>
  </g>
  <text font-size="12.7998" style="fill: #000000;text-anchor:start;font-family:sans-serif;font-style:normal;font-weight:normal" x="671" y="565">
    <tspan x="671" y="565"></tspan>
  </text>
  <g>
    <rect style="fill: #ffffff" x="320" y="170.5" width="303" height="150"/>
    <rect style="fill: none; fill-opacity:0; stroke-width: 2.35099e-037; stroke: #000000" x="320" y="170.5" width="303" height="150"/>
    <text font-size="12.8" style="fill: #000000;text-anchor:start;font-family:sans-serif;font-style:normal;font-weight:700" x="330" y="202.3">
      <tspan x="330" y="202.3">    0          123         56         78     ......     12</tspan>
      <tspan x="330" y="218.3">   55          45           7         234    ......     79</tspan>
      <tspan x="330" y="234.3">  577         34          0            0      ......    123</tspan>
      <tspan x="330" y="250.3">    1            0            0            0      ......     34</tspan>
      <tspan x="330" y="266.3">   ...           ...           ...           ...      ......     ... </tspan>
      <tspan x="330" y="282.3">   ...           ...           ...           ...      ......     ...</tspan>
      <tspan x="330" y="298.3">   1           230       901        100    ......     0</tspan>
    </text>
  </g>
  <text font-size="12.7998" style="fill: #000000;text-anchor:start;font-family:sans-serif;font-style:normal;font-weight:normal" x="471.5" y="245.5">
    <tspan x="471.5" y="245.5"></tspan>
  </text>
  <text font-size="12.7998" style="fill: #000000;text-anchor:start;font-family:sans-serif;font-style:normal;font-weight:normal" x="471.5" y="245.5">
    <tspan x="471.5" y="245.5"></tspan>
  </text>
  <text font-size="12.7998" style="fill: #000000;text-anchor:start;font-family:sans-serif;font-style:normal;font-weight:normal" x="471.5" y="245.5">
    <tspan x="471.5" y="245.5"></tspan>
  </text>
  <text font-size="12.7998" style="fill: #000000;text-anchor:start;font-family:sans-serif;font-style:normal;font-weight:normal" x="471.5" y="245.5">
    <tspan x="471.5" y="245.5"></tspan>
  </text>
  <text font-size="12.7998" style="fill: #000000;text-anchor:start;font-family:sans-serif;font-style:normal;font-weight:normal" x="471.5" y="245.5">
    <tspan x="471.5" y="245.5"></tspan>
  </text>
  <text font-size="19.7556" style="fill: #000000;text-anchor:start;font-family:sans-serif;font-style:normal;font-weight:700" x="342" y="118">
    <tspan x="342" y="118">Read Counts (m x n)</tspan>
  </text>
  <g>
    <rect style="fill: #d8e5e5" x="692.9" y="174.8" width="81.9" height="144"/>
    <rect style="fill: none; fill-opacity:0; stroke-width: 2.35099e-037; stroke: #000000" x="692.9" y="174.8" width="81.9" height="144"/>
    <text font-size="12.8" style="fill: #000000;text-anchor:end;font-family:sans-serif;font-style:normal;font-weight:700" x="764.8" y="203.6">
      <tspan x="764.8" y="203.6">sample 1</tspan>
      <tspan x="764.8" y="219.6">sample 2</tspan>
      <tspan x="764.8" y="235.6">sample 3</tspan>
      <tspan x="764.8" y="251.6">sample 4</tspan>
      <tspan x="764.8" y="267.6">......</tspan>
      <tspan x="764.8" y="283.6">......</tspan>
      <tspan x="764.8" y="299.6">sample m</tspan>
    </text>
  </g>
  <text font-size="12.7998" style="fill: #000000;text-anchor:start;font-family:sans-serif;font-style:normal;font-weight:normal" x="733.85" y="246.8">
    <tspan x="733.85" y="246.8"></tspan>
  </text>
  <text font-size="12.7998" style="fill: #000000;text-anchor:start;font-family:sans-serif;font-style:normal;font-weight:normal" x="926.85" y="359.8">
    <tspan x="926.85" y="359.8"></tspan>
  </text>
  <g>
    <rect style="fill: #00ff00" x="772.875" y="133.8" width="275.15" height="36"/>
    <rect style="fill: none; fill-opacity:0; stroke-width: 2.35099e-037; stroke: #000000" x="772.875" y="133.8" width="275.15" height="36"/>
    <text font-size="12.8" style="fill: #000000;text-anchor:start;font-family:sans-serif;font-style:normal;font-weight:700" x="782.875" y="156.6">
      <tspan x="782.875" y="156.6">   ID   Age  Gender  Level    Group    ...... </tspan>
    </text>
  </g>
  <g>
    <rect style="fill: #ffffff" x="774" y="171.3" width="274.1" height="150"/>
    <rect style="fill: none; fill-opacity:0; stroke-width: 2.35099e-037; stroke: #000000" x="774" y="171.3" width="274.1" height="150"/>
    <text font-size="12.8" style="fill: #000000;text-anchor:start;font-family:sans-serif;font-style:normal;font-weight:700" x="784" y="203.1">
      <tspan x="784" y="203.1"> 001    23       F          2      Healthy    ...... </tspan>
      <tspan x="784" y="219.1"> 005    45       M         4      Healthy    ...... </tspan>
      <tspan x="784" y="235.1"> 577    34       M         1      Healthy    ......</tspan>
      <tspan x="784" y="251.1"> 011     0         U         1      Healthy    ......</tspan>
      <tspan x="784" y="267.1">  ...       ...        ...        ...          ...         ...... </tspan>
      <tspan x="784" y="283.1">  ...       ...        ...        ...          ...         ...... </tspan>
      <tspan x="784" y="299.1"> 456    30        F         1       Patient    ......</tspan>
    </text>
  </g>
  <text font-size="12.7998" style="fill: #000000;text-anchor:start;font-family:sans-serif;font-style:normal;font-weight:normal" x="911.05" y="246.3">
    <tspan x="911.05" y="246.3"></tspan>
  </text>
  <text font-size="12.7998" style="fill: #000000;text-anchor:start;font-family:sans-serif;font-style:normal;font-weight:normal" x="911.05" y="246.3">
    <tspan x="911.05" y="246.3"></tspan>
  </text>
  <text font-size="12.7998" style="fill: #000000;text-anchor:start;font-family:sans-serif;font-style:normal;font-weight:normal" x="911.05" y="246.3">
    <tspan x="911.05" y="246.3"></tspan>
  </text>
  <text font-size="12.7998" style="fill: #000000;text-anchor:start;font-family:sans-serif;font-style:normal;font-weight:normal" x="911.05" y="246.3">
    <tspan x="911.05" y="246.3"></tspan>
  </text>
  <text font-size="12.7998" style="fill: #000000;text-anchor:start;font-family:sans-serif;font-style:normal;font-weight:normal" x="911.05" y="246.3">
    <tspan x="911.05" y="246.3"></tspan>
  </text>
  <text font-size="19.7556" style="fill: #000000;text-anchor:start;font-family:sans-serif;font-style:normal;font-weight:700" x="796.85" y="116.8">
    <tspan x="796.85" y="116.8">Phenotypes (m x s)</tspan>
  </text>
  <text font-size="12.7998" style="fill: #000000;text-anchor:start;font-family:sans-serif;font-style:normal;font-weight:normal" x="828" y="97">
    <tspan x="828" y="97"></tspan>
  </text>
  <text font-size="12.7998" style="fill: #000000;text-anchor:start;font-family:sans-serif;font-style:normal;font-weight:normal" x="772.875" y="142.8">
    <tspan x="772.875" y="142.8"></tspan>
  </text>
  <text font-size="12.7998" style="fill: #000000;text-anchor:start;font-family:sans-serif;font-style:normal;font-weight:normal" x="910.45" y="151.8">
    <tspan x="910.45" y="151.8"></tspan>
  </text>
  <text font-size="12.7998" style="fill: #000000;text-anchor:start;font-family:sans-serif;font-style:normal;font-weight:normal" x="910.45" y="151.8">
    <tspan x="910.45" y="151.8"></tspan>
  </text>
  <text font-size="12.7998" style="fill: #000000;text-anchor:start;font-family:sans-serif;font-style:normal;font-weight:normal" x="910.45" y="151.8">
    <tspan x="910.45" y="151.8"></tspan>
  </text>
  <text font-size="12.7998" style="fill: #000000;text-anchor:start;font-family:sans-serif;font-style:normal;font-weight:normal" x="911.05" y="246.3">
    <tspan x="911.05" y="246.3"></tspan>
  </text>
  <text font-size="12.7998" style="fill: #000000;text-anchor:start;font-family:sans-serif;font-style:normal;font-weight:normal" x="911.05" y="246.3">
    <tspan x="911.05" y="246.3"></tspan>
  </text>
  <text font-size="12.7998" style="fill: #000000;text-anchor:start;font-family:sans-serif;font-style:normal;font-weight:normal" x="910.45" y="151.8">
    <tspan x="910.45" y="151.8"></tspan>
  </text>
  <g>
    <rect style="fill: #d8e5e5" x="1110.18" y="181.8" width="102.8" height="132"/>
    <rect style="fill: none; fill-opacity:0; stroke-width: 2.35099e-037; stroke: #000000" x="1110.18" y="181.8" width="102.8" height="132"/>
    <text font-size="12.8" style="fill: #000000;text-anchor:end;font-family:sans-serif;font-style:normal;font-weight:700" x="1202.98" y="204.6">
      <tspan x="1202.98" y="204.6">gene ID</tspan>
      <tspan x="1202.98" y="220.6">gene name</tspan>
      <tspan x="1202.98" y="236.6">chromosome</tspan>
      <tspan x="1202.98" y="252.6">start</tspan>
      <tspan x="1202.98" y="268.6">end</tspan>
      <tspan x="1202.98" y="284.6">protein ID</tspan>
      <tspan x="1202.98" y="300.6">......</tspan>
    </text>
  </g>
  <text font-size="12.7998" style="fill: #000000;text-anchor:start;font-family:sans-serif;font-style:normal;font-weight:normal" x="1161.58" y="247.8">
    <tspan x="1161.58" y="247.8"></tspan>
  </text>
  <g>
    <rect style="fill: #00ff00" x="1212.6" y="142.8" width="305.8" height="36"/>
    <rect style="fill: none; fill-opacity:0; stroke-width: 2.35099e-037; stroke: #000000" x="1212.6" y="142.8" width="305.8" height="36"/>
    <text font-size="12.8" style="fill: #000000;text-anchor:middle;font-family:sans-serif;font-style:normal;font-weight:700" x="1365.5" y="165.6">
      <tspan x="1365.5" y="165.6">gene 1   gene 2   gene 3  gene 4  ......  gene n</tspan>
    </text>
  </g>
  <g>
    <rect style="fill: #ffffff" x="1214.15" y="180.3" width="305.75" height="132"/>
    <rect style="fill: none; fill-opacity:0; stroke-width: 2.35099e-037; stroke: #000000" x="1214.15" y="180.3" width="305.75" height="132"/>
    <text font-size="12.8" style="fill: #000000;text-anchor:start;font-family:sans-serif;font-style:normal;font-weight:700" x="1224.15" y="203.1">
      <tspan x="1224.15" y="203.1">G0030   G123      G56      G78    ......        G12</tspan>
      <tspan x="1224.15" y="219.1">  BA 1    SAT45    SSA7     CAT    ......     LOC10</tspan>
      <tspan x="1224.15" y="235.1">  chr5     chr4       chr3     chrX    ......      chr5</tspan>
      <tspan x="1224.15" y="251.1">    1        1230       560     4530    ......       34</tspan>
      <tspan x="1224.15" y="267.1">   45       1780      4567    7000    ......       90</tspan>
      <tspan x="1224.15" y="283.1">  P001    P002      P120    P100   ......      P980 </tspan>
      <tspan x="1224.15" y="299.1">   ...           ...           ...          ...      ......        ...</tspan>
    </text>
  </g>
  <text font-size="12.7998" style="fill: #000000;text-anchor:start;font-family:sans-serif;font-style:normal;font-weight:normal" x="1367.03" y="246.3">
    <tspan x="1367.03" y="246.3"></tspan>
  </text>
  <text font-size="12.7998" style="fill: #000000;text-anchor:start;font-family:sans-serif;font-style:normal;font-weight:normal" x="1367.03" y="246.3">
    <tspan x="1367.03" y="246.3"></tspan>
  </text>
  <text font-size="12.7998" style="fill: #000000;text-anchor:start;font-family:sans-serif;font-style:normal;font-weight:normal" x="1367.03" y="246.3">
    <tspan x="1367.03" y="246.3"></tspan>
  </text>
  <text font-size="12.7998" style="fill: #000000;text-anchor:start;font-family:sans-serif;font-style:normal;font-weight:normal" x="1367.03" y="246.3">
    <tspan x="1367.03" y="246.3"></tspan>
  </text>
  <text font-size="12.7998" style="fill: #000000;text-anchor:start;font-family:sans-serif;font-style:normal;font-weight:normal" x="1367.03" y="246.3">
    <tspan x="1367.03" y="246.3"></tspan>
  </text>
  <text font-size="19.7556" style="fill: #000000;text-anchor:start;font-family:sans-serif;font-style:normal;font-weight:700" x="1286.85" y="115.8">
    <tspan x="1286.85" y="115.8">Annotations (v x n)</tspan>
  </text>
  <text font-size="12.7998" style="fill: #000000;text-anchor:start;font-family:sans-serif;font-style:normal;font-weight:normal" x="1291" y="93">
    <tspan x="1291" y="93"></tspan>
  </text>
  <text font-size="12.7998" style="fill: #000000;text-anchor:start;font-family:sans-serif;font-style:normal;font-weight:normal" x="1161.58" y="247.8">
    <tspan x="1161.58" y="247.8"></tspan>
  </text>
  <text font-size="12.7998" style="fill: #000000;text-anchor:start;font-family:sans-serif;font-style:normal;font-weight:normal" x="1161.58" y="247.8">
    <tspan x="1161.58" y="247.8"></tspan>
  </text>
  <text font-size="12.7998" style="fill: #000000;text-anchor:start;font-family:sans-serif;font-style:normal;font-weight:normal" x="1367.03" y="246.3">
    <tspan x="1367.03" y="246.3"></tspan>
  </text>
  <text font-size="12.7998" style="fill: #000000;text-anchor:start;font-family:sans-serif;font-style:normal;font-weight:normal" x="1367.03" y="246.3">
    <tspan x="1367.03" y="246.3"></tspan>
  </text>
  <text font-size="12.7998" style="fill: #000000;text-anchor:start;font-family:sans-serif;font-style:normal;font-weight:normal" x="1367.03" y="246.3">
    <tspan x="1367.03" y="246.3"></tspan>
  </text>
  <text font-size="12.7998" style="fill: #000000;text-anchor:start;font-family:sans-serif;font-style:normal;font-weight:normal" x="1367.03" y="246.3">
    <tspan x="1367.03" y="246.3"></tspan>
  </text>
  <text font-size="12.7998" style="fill: #000000;text-anchor:start;font-family:sans-serif;font-style:normal;font-weight:normal" x="1161.58" y="247.8">
    <tspan x="1161.58" y="247.8"></tspan>
  </text>
  <text font-size="12.7998" style="fill: #000000;text-anchor:start;font-family:sans-serif;font-style:normal;font-weight:normal" x="471.65" y="151">
    <tspan x="471.65" y="151"></tspan>
  </text>
  <text font-size="12.7998" style="fill: #000000;text-anchor:start;font-family:sans-serif;font-style:normal;font-weight:normal" x="1365.5" y="160.8">
    <tspan x="1365.5" y="160.8"></tspan>
  </text>
  <text font-size="12.7998" style="fill: #000000;text-anchor:start;font-family:sans-serif;font-style:normal;font-weight:normal" x="1161.58" y="247.8">
    <tspan x="1161.58" y="247.8"></tspan>
  </text>
  <text font-size="12.7998" style="fill: #000000;text-anchor:start;font-family:sans-serif;font-style:normal;font-weight:normal" x="535" y="109">
    <tspan x="535" y="109"></tspan>
  </text>
  <text font-size="12.7998" style="fill: #000000;text-anchor:start;font-family:sans-serif;font-style:normal;font-weight:normal" x="890" y="101">
    <tspan x="890" y="101"></tspan>
  </text>
  <text font-size="12.7998" style="fill: #000000;text-anchor:start;font-family:sans-serif;font-style:normal;font-weight:normal" x="1377" y="105">
    <tspan x="1377" y="105"></tspan>
  </text>
  <text font-size="12.7998" style="fill: #000000;text-anchor:start;font-family:sans-serif;font-style:normal;font-weight:normal" x="1034" y="111">
    <tspan x="1034" y="111"></tspan>
  </text>
  <text font-size="12.7998" style="fill: #000000;text-anchor:start;font-family:sans-serif;font-style:normal;font-weight:normal" x="1353" y="101">
    <tspan x="1353" y="101"></tspan>
  </text>
  <text font-size="12.7998" style="fill: #000000;text-anchor:start;font-family:sans-serif;font-style:normal;font-weight:normal" x="1421" y="110">
    <tspan x="1421" y="110"></tspan>
  </text>
  <text font-size="12.7998" style="fill: #000000;text-anchor:start;font-family:sans-serif;font-style:normal;font-weight:normal" x="911.05" y="246.3">
    <tspan x="911.05" y="246.3"></tspan>
  </text>
  <text font-size="12.7998" style="fill: #000000;text-anchor:start;font-family:sans-serif;font-style:normal;font-weight:normal" x="911.05" y="246.3">
    <tspan x="911.05" y="246.3"></tspan>
  </text>
  <text font-size="12.7998" style="fill: #000000;text-anchor:start;font-family:sans-serif;font-style:normal;font-weight:normal" x="471.5" y="245.5">
    <tspan x="471.5" y="245.5"></tspan>
  </text>
  <text font-size="12.7998" style="fill: #000000;text-anchor:start;font-family:sans-serif;font-style:normal;font-weight:normal" x="844" y="113">
    <tspan x="844" y="113"></tspan>
  </text>
  <text font-size="12.7998" style="fill: #000000;text-anchor:start;font-family:sans-serif;font-style:normal;font-weight:normal" x="911.05" y="246.3">
    <tspan x="911.05" y="246.3"></tspan>
  </text>
  <g>
    <line style="fill: none; fill-opacity:0; stroke-width: 2; stroke: #000000" x1="573" y1="336" x2="728.208" y2="409.818"/>
    <polygon style="fill: #000000" points="734.981,413.04 723.803,413.26 728.208,409.818 728.098,404.229 "/>
    <polygon style="fill: none; fill-opacity:0; stroke-width: 2; stroke: #000000" points="734.981,413.04 723.803,413.26 728.208,409.818 728.098,404.229 "/>
  </g>
  <g>
    <line style="fill: none; fill-opacity:0; stroke-width: 2; stroke: #000000" x1="882" y1="341" x2="882" y2="407.264"/>
    <polygon style="fill: #000000" points="882,414.764 877,404.764 882,407.264 887,404.764 "/>
    <polygon style="fill: none; fill-opacity:0; stroke-width: 2; stroke: #000000" points="882,414.764 877,404.764 882,407.264 887,404.764 "/>
  </g>
  <g>
    <line style="fill: none; fill-opacity:0; stroke-width: 2; stroke: #000000" x1="1247" y1="331" x2="1084.82" y2="406.874"/>
    <polygon style="fill: #000000" points="1078.03,410.052 1084.96,401.286 1084.82,406.874 1089.2,410.344 "/>
    <polygon style="fill: none; fill-opacity:0; stroke-width: 2; stroke: #000000" points="1078.03,410.052 1084.96,401.286 1084.82,406.874 1089.2,410.344 "/>
  </g>
  <g>
    <path style="fill: none; fill-opacity:0; stroke-width: 0.02; stroke-linecap: round; stroke: #000000" d="M 875.719 500.141 C 875.641,498.812 875.641,497.797 875.641,497.016 C 875.641,493.109 876.188,489.672 877.359,486.703 C 878.141,484.516 879.469,482.25 881.422,480.062 C 882.672,478.422 885.172,476.078 888.766,472.875 C 892.281,469.828 894.547,467.328 895.641,465.453 C 896.656,463.656 897.203,461.625 897.203,459.359 C 897.203,455.453 895.641,451.937 892.516,448.891 C 889.391,445.922 885.563,444.437 881.188,444.359 C 876.734,444.437 873.141,445.844 870.25,448.5 C 867.281,451.312 865.328,455.531 864.547,461.234 L 854,459.984 C 854.938,452.328 857.75,446.391 862.438,442.172 C 867.047,438.109 873.219,436 880.953,436 C 889.078,436 895.641,438.266 900.484,442.641 C 905.328,447.172 907.75,452.484 907.75,458.656 C 907.75,462.328 906.891,465.687 905.172,468.734 C 903.453,471.859 900.094,475.609 895.172,479.906 C 891.813,482.953 889.625,485.141 888.609,486.469 C 887.594,487.953 886.813,489.516 886.344,491.312 C 885.797,493.109 885.563,496.078 885.563,500.141 L 875.719,500.141"/>
    <path style="fill: none; fill-opacity:0; stroke-width: 0.02; stroke-linecap: round; stroke: #000000" d="M 875.094 520.609 L 875.094,508.969 L 886.734,508.969 L 886.734,520.609 L 875.094,520.609"/>
  </g>
</svg>
