<?xml version="1.0" encoding="UTF-8" standalone="no"?>
<!DOCTYPE svg PUBLIC "-//W3C//DTD SVG 1.0//EN" "http://www.w3.org/TR/2001/PR-SVG-20010719/DTD/svg10.dtd">
<svg width="24cm" height="19cm" viewBox="90 166 470 380" xmlns="http://www.w3.org/2000/svg" xmlns:xlink="http://www.w3.org/1999/xlink">
  <g>
    <path style="fill: #e6e6fa" d="M 365 255 L 413,255 C 419.627,255 425,261.716 425,270 C 425,278.284 419.627,285 413,285 L 365,285 C 358.373,285 353,278.284 353,270 C 353,261.716 358.373,255 365,255z"/>
    <path style="fill: none; fill-opacity:0; stroke-width: 2; stroke: #000000" d="M 365 255 L 413,255 C 419.627,255 425,261.716 425,270 C 425,278.284 419.627,285 413,285 L 365,285 C 358.373,285 353,278.284 353,270 C 353,261.716 358.373,255 365,255"/>
    <text font-size="16.9333" style="fill: #000000;text-anchor:middle;font-family:sans-serif;font-style:normal;font-weight:700" x="389" y="276.35">
      <tspan x="389" y="276.35">root</tspan>
    </text>
  </g>
  <g>
    <path style="fill: #e6e6fa" d="M 267.55 333.2 L 350.25,333.2 C 361.668,333.2 370.925,339.916 370.925,348.2 C 370.925,356.484 361.668,363.2 350.25,363.2 L 267.55,363.2 C 256.132,363.2 246.875,356.484 246.875,348.2 C 246.875,339.916 256.132,333.2 267.55,333.2z"/>
    <path style="fill: none; fill-opacity:0; stroke-width: 2; stroke: #000000" d="M 267.55 333.2 L 350.25,333.2 C 361.668,333.2 370.925,339.916 370.925,348.2 C 370.925,356.484 361.668,363.2 350.25,363.2 L 267.55,363.2 C 256.132,363.2 246.875,356.484 246.875,348.2 C 246.875,339.916 256.132,333.2 267.55,333.2"/>
    <text font-size="16.9333" style="fill: #000000;text-anchor:middle;font-family:sans-serif;font-style:normal;font-weight:700" x="308.9" y="354.55">
      <tspan x="308.9" y="354.55">node: RC</tspan>
    </text>
  </g>
  <text font-size="12.7998" style="fill: #000000;text-anchor:start;font-family:sans-serif;font-style:normal;font-weight:normal" x="308.9" y="348.2">
    <tspan x="308.9" y="348.2"></tspan>
  </text>
  <g>
    <path style="fill: #e6e6fa" d="M 197.175 429.2 L 324.675,429.2 C 342.279,429.2 356.55,435.916 356.55,444.2 C 356.55,452.484 342.279,459.2 324.675,459.2 L 197.175,459.2 C 179.571,459.2 165.3,452.484 165.3,444.2 C 165.3,435.916 179.571,429.2 197.175,429.2z"/>
    <path style="fill: none; fill-opacity:0; stroke-width: 2; stroke: #000000" d="M 197.175 429.2 L 324.675,429.2 C 342.279,429.2 356.55,435.916 356.55,444.2 C 356.55,452.484 342.279,459.2 324.675,459.2 L 197.175,459.2 C 179.571,459.2 165.3,452.484 165.3,444.2 C 165.3,435.916 179.571,429.2 197.175,429.2"/>
    <text font-size="16.9333" style="fill: #000000;text-anchor:middle;font-family:sans-serif;font-style:normal;font-weight:700" x="260.925" y="450.55">
      <tspan x="260.925" y="450.55">node: normRC</tspan>
    </text>
  </g>
  <g>
    <ellipse style="fill: #ffffff" cx="334" cy="193" rx="51.0895" ry="25.5448"/>
    <ellipse style="fill: none; fill-opacity:0; stroke-width: 2; stroke: #000000" cx="334" cy="193" rx="51.0895" ry="25.5448"/>
    <text font-size="12.7998" style="fill: #000000;text-anchor:middle;font-family:sans-serif;font-style:normal;font-weight:normal" x="334" y="197.8">
      <tspan x="334" y="197.8">Phenotypes</tspan>
    </text>
  </g>
  <g>
    <ellipse style="fill: #ffffff" cx="488.144" cy="202.605" rx="56.7234" ry="23.6179"/>
    <ellipse style="fill: none; fill-opacity:0; stroke-width: 2; stroke: #000000" cx="488.144" cy="202.605" rx="56.7234" ry="23.6179"/>
    <text font-size="12.7998" style="fill: #000000;text-anchor:middle;font-family:sans-serif;font-style:normal;font-weight:normal" x="488.144" y="207.405">
      <tspan x="488.144" y="207.405">Annotations</tspan>
    </text>
  </g>
  <g>
    <line style="fill: none; fill-opacity:0; stroke-width: 2; stroke: #000000" x1="260" y1="425" x2="302.859" y2="370.835"/>
    <polygon style="fill: #000000" points="307.513,364.954 305.228,375.898 302.859,370.835 297.386,369.693 "/>
    <polygon style="fill: none; fill-opacity:0; stroke-width: 2; stroke: #000000" points="307.513,364.954 305.228,375.898 302.859,370.835 297.386,369.693 "/>
  </g>
  <g>
    <line style="fill: none; fill-opacity:0; stroke-width: 2; stroke: #000000" x1="325.297" y1="332.192" x2="365.636" y2="292.81"/>
    <polygon style="fill: #000000" points="371.003,287.571 367.34,298.134 365.636,292.81 360.354,290.979 "/>
    <polygon style="fill: none; fill-opacity:0; stroke-width: 2; stroke: #000000" points="371.003,287.571 367.34,298.134 365.636,292.81 360.354,290.979 "/>
  </g>
  <text font-size="12.7998" style="fill: #000000;text-anchor:start;font-family:sans-serif;font-style:normal;font-weight:normal" x="488.144" y="202.605">
    <tspan x="488.144" y="202.605"></tspan>
  </text>
  <line style="fill: none; fill-opacity:0; stroke-width: 2; stroke: #000000" x1="334" y1="218.545" x2="365" y2="255"/>
  <line style="fill: none; fill-opacity:0; stroke-width: 2; stroke: #000000" x1="488.144" y1="226.223" x2="413" y2="255"/>
  <g>
    <ellipse style="fill: #ffffff" cx="503" cy="350" rx="51.7628" ry="25.8814"/>
    <ellipse style="fill: none; fill-opacity:0; stroke-width: 2; stroke: #000000" cx="503" cy="350" rx="51.7628" ry="25.8814"/>
    <text font-size="12.7998" style="fill: #000000;text-anchor:middle;font-family:sans-serif;font-style:normal;font-weight:normal" x="503" y="354.8">
      <tspan x="503" y="354.8">Aggreations</tspan>
    </text>
  </g>
  <line style="fill: none; fill-opacity:0; stroke-width: 2; stroke: #000000" x1="451.237" y1="350" x2="370.925" y2="348.2"/>
  <g>
    <ellipse style="fill: #ffffff" cx="506.663" cy="447.081" rx="51.7628" ry="25.8814"/>
    <ellipse style="fill: none; fill-opacity:0; stroke-width: 2; stroke: #000000" cx="506.663" cy="447.081" rx="51.7628" ry="25.8814"/>
    <text font-size="12.7998" style="fill: #000000;text-anchor:middle;font-family:sans-serif;font-style:normal;font-weight:normal" x="506.663" y="451.881">
      <tspan x="506.663" y="451.881">Aggreations</tspan>
    </text>
  </g>
  <line style="fill: none; fill-opacity:0; stroke-width: 2; stroke: #000000" x1="454.9" y1="447.081" x2="356.55" y2="444.2"/>
  <text font-size="22.5778" style="fill: #000000;text-anchor:start;font-family:sans-serif;font-style:normal;font-weight:700" x="90" y="252">
    <tspan x="90" y="252">Object of SeqData</tspan>
  </text>
  <g>
    <path style="fill: #e6e6fa" d="M 138.9 513.2 L 186.9,513.2 C 193.527,513.2 198.9,519.916 198.9,528.2 C 198.9,536.484 193.527,543.2 186.9,543.2 L 138.9,543.2 C 132.273,543.2 126.9,536.484 126.9,528.2 C 126.9,519.916 132.273,513.2 138.9,513.2z"/>
    <path style="fill: none; fill-opacity:0; stroke-width: 2; stroke: #000000" d="M 138.9 513.2 L 186.9,513.2 C 193.527,513.2 198.9,519.916 198.9,528.2 C 198.9,536.484 193.527,543.2 186.9,543.2 L 138.9,543.2 C 132.273,543.2 126.9,536.484 126.9,528.2 C 126.9,519.916 132.273,513.2 138.9,513.2"/>
    <text font-size="16.9333" style="fill: #000000;text-anchor:middle;font-family:sans-serif;font-style:normal;font-weight:700" x="162.9" y="534.55">
      <tspan x="162.9" y="534.55">node</tspan>
    </text>
  </g>
  <g>
    <path style="fill: #e6e6fa" d="M 290.825 515.2 L 344.975,515.2 C 352.452,515.2 358.513,521.916 358.513,530.2 C 358.513,538.484 352.452,545.2 344.975,545.2 L 290.825,545.2 C 283.348,545.2 277.287,538.484 277.287,530.2 C 277.287,521.916 283.348,515.2 290.825,515.2z"/>
    <path style="fill: none; fill-opacity:0; stroke-width: 2; stroke: #000000" d="M 290.825 515.2 L 344.975,515.2 C 352.452,515.2 358.513,521.916 358.513,530.2 C 358.513,538.484 352.452,545.2 344.975,545.2 L 290.825,545.2 C 283.348,545.2 277.287,538.484 277.287,530.2 C 277.287,521.916 283.348,515.2 290.825,515.2"/>
    <text font-size="16.9333" style="fill: #000000;text-anchor:middle;font-family:sans-serif;font-style:normal;font-weight:700" x="317.9" y="536.55">
      <tspan x="317.9" y="536.55">node</tspan>
    </text>
  </g>
  <text font-size="12.7998" style="fill: #000000;text-anchor:start;font-family:sans-serif;font-style:normal;font-weight:normal" x="162.9" y="528.2">
    <tspan x="162.9" y="528.2"></tspan>
  </text>
  <g>
    <line style="fill: none; fill-opacity:0; stroke-width: 2; stroke: #000000" x1="162.9" y1="513.2" x2="221.508" y2="465.357"/>
    <polygon style="fill: #000000" points="227.318,460.614 222.733,470.811 221.508,465.357 216.409,463.064 "/>
    <polygon style="fill: none; fill-opacity:0; stroke-width: 2; stroke: #000000" points="227.318,460.614 222.733,470.811 221.508,465.357 216.409,463.064 "/>
  </g>
  <g>
    <line style="fill: none; fill-opacity:0; stroke-width: 2; stroke: #000000" x1="317.9" y1="515.2" x2="296.782" y2="468.084"/>
    <polygon style="fill: #000000" points="293.715,461.24 302.367,468.321 296.782,468.084 293.242,472.411 "/>
    <polygon style="fill: none; fill-opacity:0; stroke-width: 2; stroke: #000000" points="293.715,461.24 302.367,468.321 296.782,468.084 293.242,472.411 "/>
  </g>
  <text font-size="12.7998" style="fill: #000000;text-anchor:start;font-family:sans-serif;font-style:normal;font-weight:normal" x="150" y="245">
    <tspan x="150" y="245"></tspan>
  </text>
  <text font-size="12.7998" style="fill: #000000;text-anchor:start;font-family:sans-serif;font-style:normal;font-weight:normal" x="334" y="193">
    <tspan x="334" y="193"></tspan>
  </text>
</svg>
